<mxfile host="app.diagrams.net" agent="Mozilla/5.0 (Windows NT 10.0; Win64; x64; rv:134.0) Gecko/20100101 Firefox/134.0" version="26.0.6">
  <diagram name="第 1 页" id="ebeUFto6fMN5XXxg8IfA">
    <mxGraphModel dx="1334" dy="962" grid="1" gridSize="10" guides="1" tooltips="1" connect="1" arrows="1" fold="1" page="1" pageScale="1" pageWidth="827" pageHeight="1169" math="0" shadow="0">
      <root>
        <mxCell id="0" />
        <mxCell id="1" parent="0" />
        <mxCell id="XC2Z82CuPK0ErsjAf5O9-12" value="" style="whiteSpace=wrap;html=1;fillColor=none;dashed=1;dashPattern=8 8;" vertex="1" parent="1">
          <mxGeometry x="120" y="310" width="330" height="320" as="geometry" />
        </mxCell>
        <mxCell id="XC2Z82CuPK0ErsjAf5O9-2" value="报告数据产出流程" style="rounded=0;whiteSpace=wrap;html=1;fillColor=#5C4038;gradientColor=none;fontColor=#F2F2F2;strokeColor=none;" vertex="1" parent="1">
          <mxGeometry x="370" y="160" width="120" height="60" as="geometry" />
        </mxCell>
        <mxCell id="XC2Z82CuPK0ErsjAf5O9-3" value="数据采集" style="whiteSpace=wrap;html=1;strokeColor=none;fillColor=#D9D9D9;fontColor=#323232;" vertex="1" parent="1">
          <mxGeometry x="140" y="550" width="290" height="60" as="geometry" />
        </mxCell>
        <mxCell id="XC2Z82CuPK0ErsjAf5O9-9" style="edgeStyle=orthogonalEdgeStyle;rounded=0;orthogonalLoop=1;jettySize=auto;html=1;entryX=0;entryY=0.5;entryDx=0;entryDy=0;" edge="1" parent="1" source="XC2Z82CuPK0ErsjAf5O9-4" target="XC2Z82CuPK0ErsjAf5O9-8">
          <mxGeometry relative="1" as="geometry" />
        </mxCell>
        <mxCell id="XC2Z82CuPK0ErsjAf5O9-4" value="听评课" style="whiteSpace=wrap;html=1;strokeColor=none;fillColor=#DED9D7;fontColor=#323232;" vertex="1" parent="1">
          <mxGeometry x="140" y="330" width="120" height="60" as="geometry" />
        </mxCell>
        <mxCell id="XC2Z82CuPK0ErsjAf5O9-5" value="" style="whiteSpace=wrap;html=1;strokeColor=none;fillColor=#BEB3AF;fontColor=#323232;" vertex="1" parent="1">
          <mxGeometry x="570" y="350" width="120" height="60" as="geometry" />
        </mxCell>
        <mxCell id="XC2Z82CuPK0ErsjAf5O9-10" style="edgeStyle=orthogonalEdgeStyle;rounded=0;orthogonalLoop=1;jettySize=auto;html=1;entryX=0;entryY=0.5;entryDx=0;entryDy=0;" edge="1" parent="1" source="XC2Z82CuPK0ErsjAf5O9-6" target="XC2Z82CuPK0ErsjAf5O9-8">
          <mxGeometry relative="1" as="geometry" />
        </mxCell>
        <mxCell id="XC2Z82CuPK0ErsjAf5O9-6" value="课表" style="whiteSpace=wrap;html=1;strokeColor=none;fillColor=#DED9D7;fontColor=#323232;" vertex="1" parent="1">
          <mxGeometry x="140" y="400" width="120" height="60" as="geometry" />
        </mxCell>
        <mxCell id="XC2Z82CuPK0ErsjAf5O9-11" style="edgeStyle=orthogonalEdgeStyle;rounded=0;orthogonalLoop=1;jettySize=auto;html=1;entryX=0;entryY=0.5;entryDx=0;entryDy=0;" edge="1" parent="1" source="XC2Z82CuPK0ErsjAf5O9-7" target="XC2Z82CuPK0ErsjAf5O9-8">
          <mxGeometry relative="1" as="geometry" />
        </mxCell>
        <mxCell id="XC2Z82CuPK0ErsjAf5O9-7" value="线下视频导入" style="whiteSpace=wrap;html=1;strokeColor=none;fillColor=#DED9D7;fontColor=#323232;" vertex="1" parent="1">
          <mxGeometry x="140" y="470" width="120" height="60" as="geometry" />
        </mxCell>
        <mxCell id="XC2Z82CuPK0ErsjAf5O9-8" value="视频切片上传" style="whiteSpace=wrap;html=1;strokeColor=none;fillColor=#DED9D7;fontColor=#323232;" vertex="1" parent="1">
          <mxGeometry x="310" y="400" width="120" height="60" as="geometry" />
        </mxCell>
        <mxCell id="XC2Z82CuPK0ErsjAf5O9-13" value="数据分析" style="whiteSpace=wrap;html=1;strokeColor=none;fillColor=#D9D9D9;fontColor=#323232;" vertex="1" parent="1">
          <mxGeometry x="490" y="550" width="1040" height="60" as="geometry" />
        </mxCell>
      </root>
    </mxGraphModel>
  </diagram>
</mxfile>
